<svg width="32" height="32" viewBox="0 0 32 32" fill="none" xmlns="http://www.w3.org/2000/svg">
<path d="M16.0003 29.3334C23.3641 29.3334 29.3337 23.3639 29.3337 16.0001C29.3337 8.63628 23.3641 2.66675 16.0003 2.66675C8.63653 2.66675 2.66699 8.63628 2.66699 16.0001C2.66699 23.3639 8.63653 29.3334 16.0003 29.3334Z" fill="#5E49FF"/>
<path fill-rule="evenodd" clip-rule="evenodd" d="M20.7071 12.7071C21.0976 12.3166 21.0976 11.6834 20.7071 11.2929C20.3166 10.9024 19.6834 10.9024 19.2929 11.2929L16 14.5858L12.7071 11.2929C12.3166 10.9024 11.6834 10.9024 11.2929 11.2929C10.9024 11.6834 10.9024 12.3166 11.2929 12.7071L14.5858 16L11.2929 19.2929C10.9024 19.6834 10.9024 20.3166 11.2929 20.7071C11.6834 21.0976 12.3166 21.0976 12.7071 20.7071L16 17.4142L19.2929 20.7071C19.6834 21.0976 20.3166 21.0976 20.7071 20.7071C21.0976 20.3166 21.0976 19.6834 20.7071 19.2929L17.4142 16L20.7071 12.7071Z" fill="white"/>
</svg>
